/* XPM */
static char *_20397a819bc4223e47b229c019bded1GgFjKQIQhyA7PFkb[] = {
/* columns rows colors chars-per-pixel */
"32 32 3 1 ",
"  c black",
". c #578866",
"X c white",
/* pixels */
"                                ",
"    ........................    ",
"    .XX.................X...    ",
"    ..XXXXXXXXXXXXXXXXXXX...    ",
"    ........................    ",
"    ........XX..............    ",
"    ....XXXX.XX.............    ",
"    ..XX......XXX...........    ",
"    ..X..........X..........    ",
"    ..XX..........XXX.......    ",
"    .................XXX....    ",
"    .....XXX................    ",
"    ....XX..XX...XXX........    ",
"    ...XX....XXXXX..........    ",
"    ..X.....................    ",
"    .........XXXX...........    ",
"    .......XXX..XXX..XXX....    ",
"    .......X.......XXX......    ",
"    ........................    ",
"    .......XXXXXX..X........    ",
"    ....XXX......XXX........    ",
"    ........................    ",
"    ........XXXXXXXXXXXXX...    ",
"    .....XXXX...............    ",
"    ........................    ",
"    ..XXXX...XXXXX..........    ",
"    .XX...XXXX...XXXXXX.....    ",
"    ........XX.XXX....XXX...    ",
"    ..........XX............    ",
"    ...X..XXXXX...XXXXXXXX..    ",
"    ...XXX..................    ",
"                                "
};
